# xmcd
#
# Track frame offsets:
#	150
#	11214
#	21655
#	34022
#	47231
#	58401
#	67731
#	80850
#	91677
#	103493
#	110455
#	123200
#
# Disc length: 1795 seconds
#
# Revision: 1
# Processed by: cddbd v1.5.2PL0 Copyright (c) Steve Scherf et al.
# Submitted via: audiograbber 1.83.01
#
DISCID=a707010c
DTITLE=George Jones - Country Heart
DYEAR=1966
DGENRE=Country
TTITLE0=Four-o-thirty Three
TTITLE1=Let A Little Loving Come In
TTITLE2=How Proud I Would Have Been
TTITLE3=We're Watching Our Step
TTITLE4=Old Brush Arbors
TTITLE5=07 - The Race Is On
TTITLE6=Take Me
TTITLE7=Ship Of Love
TTITLE8=I Can't Get Used To Being Lonely
TTITLE9=Walk Through This World With Me
TTITLE10=Flowers For Mama
TTITLE11=We Must Have Been Out Of Our Minds (with Melba Montgome)
EXTD=
EXTT0=
EXTT1=
EXTT2=
EXTT3=
EXTT4=
EXTT5=
EXTT6=
EXTT7=
EXTT8=
EXTT9=
EXTT10=
EXTT11=
PLAYORDER=
